<svg id="Layer_1" data-name="Layer 1" xmlns="http://www.w3.org/2000/svg" viewBox="0 0 526.91 171.93"><defs><style>.cls-1{font-size:40.08px;fill:#8698a4;font-family:Acid Bold;font-weight:700;letter-spacing:2px;}.cls-2{letter-spacing:3px;}.cls-3{letter-spacing:4px;}.cls-4{fill:#006294;}.cls-5,.cls-6{fill:#0092c1;stroke:#0092c1;}.cls-5{stroke-linecap:round;stroke-linejoin:round;}.cls-6{stroke-miterlimit:10;}.cls-7{fill:#6a6464;}</style></defs><title>logo</title><text class="cls-1" transform="translate(0.04 161.91)">T<tspan class="cls-2" x="22.13" y="0">r</tspan><tspan class="cls-3" x="39.04" y="0">ansfluvial </tspan><tspan class="cls-3" x="245.54" y="0">S</tspan><tspan class="cls-3" x="269.43" y="0">a</tspan><tspan class="cls-2" x="292.76" y="0">r</tspan><tspan class="cls-3" x="309.67" y="0">ango </tspan><tspan class="cls-3" x="424.18" y="0">H</tspan><tspan class="cls-3" x="454.73" y="0">nos</tspan></text><path class="cls-4" d="M617.2,232.24" transform="translate(-176.24 -204.12)"/><path class="cls-4" d="M617.2,232.24l-28.1-28.1-112.48,0v14.06h28.11v28.11H518.8V218.18H575a28.11,28.11,0,0,1,28.11,28.11H617.2V232.24" transform="translate(-176.24 -204.12)"/><path class="cls-4" d="M617.2,232.24" transform="translate(-176.24 -204.12)"/><path class="cls-4" d="M617.2,302.52" transform="translate(-176.24 -204.12)"/><path class="cls-4" d="M617.2,302.52l-28.11,28.11H476.62V316.58h28.11V288.47H518.8v28.11H575a28.11,28.11,0,0,0,28.11-28.11H617.2v14.06Z" transform="translate(-176.24 -204.12)"/><path class="cls-4" d="M223.59,302.52" transform="translate(-176.24 -204.12)"/><path class="cls-4" d="M223.59,302.52l28.1,28.1h84.36V288.47H322v28.11H265.76a28.11,28.11,0,0,1-28.11-28.11H223.59v14.06" transform="translate(-176.24 -204.12)"/><path class="cls-4" d="M223.59,302.52" transform="translate(-176.24 -204.12)"/><path class="cls-4" d="M223.59,232.23" transform="translate(-176.24 -204.12)"/><path class="cls-4" d="M223.59,232.23l28.1-28.1h84.36v42.16H322V218.17H265.76a28.11,28.11,0,0,0-28.11,28.11H223.59V232.23" transform="translate(-176.24 -204.12)"/><path class="cls-4" d="M223.59,232.23" transform="translate(-176.24 -204.12)"/><path class="cls-4" d="M322,302.52" transform="translate(-176.24 -204.12)"/><path class="cls-4" d="M322,302.52l28.1,28.1,112.48,0V316.58H434.45V288.47H420.4v28.11H364.17a28.11,28.11,0,0,1-28.11-28.11H322v14.06" transform="translate(-176.24 -204.12)"/><path class="cls-4" d="M322,302.52" transform="translate(-176.24 -204.12)"/><path class="cls-4" d="M322,232.24" transform="translate(-176.24 -204.12)"/><path class="cls-4" d="M322,232.24l28.11-28.11H462.57v14.06H434.45v28.11H420.4V218.18H364.17a28.11,28.11,0,0,0-28.11,28.11H322V232.24Z" transform="translate(-176.24 -204.12)"/><path class="cls-5" d="M315.23,259.63L314,256.3a2.8,2.8,0,0,0-3.6-1.65l-21.44,8a2.81,2.81,0,0,0-.34.17,11.2,11.2,0,0,0-4.38-3.18V237.66a2.8,2.8,0,0,0-2.8-2.81h-3.56a2.8,2.8,0,0,0-2.8,2.8V260a11.21,11.21,0,0,0-3.72,3,2.79,2.79,0,0,0-.64-0.35l-21.44-8a2.8,2.8,0,0,0-3.6,1.65l-1.24,3.33a2.8,2.8,0,0,0,1.65,3.6l21.44,8a2.78,2.78,0,0,0,1.44.12,11.09,11.09,0,0,0,1.12,3.69,2.77,2.77,0,0,0-.65.57l-14.36,17.8a2.8,2.8,0,0,0,.42,3.94l2.77,2.23a2.8,2.8,0,0,0,3.94-.42l14.36-17.8a2.78,2.78,0,0,0,.38-0.64,11,11,0,0,0,6,0,2.78,2.78,0,0,0,.36.59l14.36,17.8a2.8,2.8,0,0,0,3.94.42l2.77-2.23a2.8,2.8,0,0,0,.42-3.94l-14.36-17.8a2.78,2.78,0,0,0-.5-0.47,11.1,11.1,0,0,0,1.16-3.74,2.78,2.78,0,0,0,1-.17l21.44-8A2.8,2.8,0,0,0,315.23,259.63ZM274.56,270a5.48,5.48,0,1,1,5.48,5.48A5.48,5.48,0,0,1,274.56,270Z" transform="translate(-176.24 -204.12)"/><path class="cls-6" d="M303.24,261.19l-6.2,4q0.12,0.43.22,0.86a17.75,17.75,0,0,1-1.07,11l5.72,4.56a24.88,24.88,0,0,0,2.32-17.15A25.19,25.19,0,0,0,303.24,261.19ZM262.3,273.14l-7.33-1a25.18,25.18,0,0,0,.5,3.27,24.88,24.88,0,0,0,9.27,14.44l3.25-6.57a17.75,17.75,0,0,1-5.55-9.43C262.39,273.61,262.34,273.37,262.3,273.14Zm21.44,14.23a17.76,17.76,0,0,1-7.57,0L272.93,294a25,25,0,0,0,23.29-5.13l-5.73-4.56A17.76,17.76,0,0,1,283.74,287.37Zm14.77-34A25,25,0,0,0,278.56,245l1.59,7.11a17.85,17.85,0,0,1,12.26,5.17Zm-28.85-6.19A25,25,0,0,0,255.85,263l7.19,1a17.87,17.87,0,0,1,8.2-9.65Z" transform="translate(-176.24 -204.12)"/><path class="cls-4" d="M385.08,231.51v19.66h8.65v20.33h-8.65q0,6.12,1.93,8.44t7.08,2.32v20.22q-1.49.05-2.21,0.05a26.16,26.16,0,0,1-12.32-3,25,25,0,0,1-9.29-8.23q-4.43-6.64-4.43-17.6V231.51h19.25Z" transform="translate(-176.24 -204.12)"/><path class="cls-4" d="M490,250.5v20.27q-4.07,0-5.58,1.52t-1.93,6q-1.34,14.87-11.53,21-5.4,3.19-15.33,3.19h-2.68V282.1h0.87q4.63,0,6.61-1.93t2.29-6.77q0.41-7.87,1.47-11.06a16.05,16.05,0,0,1,4.3-6.33q5.66-5.51,15.7-5.51H490Z" transform="translate(-176.24 -204.12)"/><path class="cls-4" d="M557.7,232.28v21.46a16.58,16.58,0,0,1,9.78-3.55,14.35,14.35,0,0,1,11.76,5.35q4.35,5.35,4.35,14.46v32.52H564.33V275.4q0-3.29-.69-4.43a2.92,2.92,0,0,0-2.7-1.13q-3.24,0-3.24,4.79v27.89H538.45V232.28H557.7Z" transform="translate(-176.24 -204.12)"/><rect class="cls-4" x="279.51" y="112.46" width="27.41" height="14.06"/><rect class="cls-4" x="279.73" width="27.41" height="14.06"/><path class="cls-7" d="M327,260.11c0.86,0,1.56-.35,1.56-0.78v-5.46c0-.43-0.7-0.78-1.56-0.78h-4.68v-2.57h14v2.57h-4.68c-0.86,0-1.56.35-1.56,0.78v5.46c0,0.43.72,0.69,1.56,0.78h4.68v2.29h-14s0-2.27,0-2.29S327,260.11,327,260.11Z" transform="translate(-176.24 -204.12)"/><path class="cls-7" d="M327,281.36c0.86,0,1.56-.35,1.56-0.78v-5.46c0-.43-0.7-0.78-1.56-0.78h-4.68v-2.57h14v2.57h-4.68c-0.86,0-1.56.35-1.56,0.78v5.46c0,0.43.72,0.69,1.56,0.78h4.68v2.29h-14s0-2.27,0-2.29S327,281.36,327,281.36Z" transform="translate(-176.24 -204.12)"/></svg>