<svg id="Layer_1" data-name="Layer 1" xmlns="http://www.w3.org/2000/svg" viewBox="0 0 179.37 69.68"><defs><style>.cls-1{font-size:17.11px;fill:#8698a4;font-family:Acid;font-weight:700;letter-spacing:1px;}.cls-2{fill:#006294;}.cls-3,.cls-4{fill:#0092c1;stroke:#0092c1;}.cls-3{stroke-linecap:round;stroke-linejoin:round;}.cls-4{stroke-miterlimit:10;}.cls-5{fill:#6a6464;}</style></defs><title>LogoModColor</title><text class="cls-1" transform="translate(0.14 66.47)">Tran<tspan x="30.13" y="0">sfl</tspan><tspan x="47.9" y="0">u</tspan><tspan x="55.36" y="0">vial S</tspan><tspan x="95.08" y="0">arang</tspan><tspan x="132.65" y="0">o H</tspan><tspan x="156.47" y="0">no</tspan><tspan x="172.45" y="0">s</tspan></text><path class="cls-2" d="M502,274.39" transform="translate(-327.34 -262.39)"/><path class="cls-2" d="M502,274.39l-12-12H442v6h12v12h6v-12h24a12,12,0,0,1,12,12h6v-6" transform="translate(-327.34 -262.39)"/><path class="cls-2" d="M502,274.39" transform="translate(-327.34 -262.39)"/><path class="cls-2" d="M502,304.39" transform="translate(-327.34 -262.39)"/><path class="cls-2" d="M502,304.39l-12,12H442v-6h12v-12h6v12h24a12,12,0,0,0,12-12h6v6Z" transform="translate(-327.34 -262.39)"/><path class="cls-2" d="M334,304.39" transform="translate(-327.34 -262.39)"/><path class="cls-2" d="M334,304.39l12,12h36v-18h-6v12H352a12,12,0,0,1-12-12h-6v6" transform="translate(-327.34 -262.39)"/><path class="cls-2" d="M334,304.39" transform="translate(-327.34 -262.39)"/><path class="cls-2" d="M334,274.38" transform="translate(-327.34 -262.39)"/><path class="cls-2" d="M334,274.38l12-12h36v18h-6v-12H352a12,12,0,0,0-12,12h-6v-6" transform="translate(-327.34 -262.39)"/><path class="cls-2" d="M334,274.38" transform="translate(-327.34 -262.39)"/><path class="cls-2" d="M376,304.39" transform="translate(-327.34 -262.39)"/><path class="cls-2" d="M376,304.39l12,12h48v-6H424v-12h-6v12H394a12,12,0,0,1-12-12h-6v6" transform="translate(-327.34 -262.39)"/><path class="cls-2" d="M376,304.39" transform="translate(-327.34 -262.39)"/><path class="cls-2" d="M376,274.39" transform="translate(-327.34 -262.39)"/><path class="cls-2" d="M376,274.39l12-12h48v6H424v12h-6v-12H394a12,12,0,0,0-12,12h-6v-6Z" transform="translate(-327.34 -262.39)"/><path class="cls-3" d="M373.08,286.08l-0.53-1.42A1.2,1.2,0,0,0,371,284l-9.15,3.39-0.15.07a4.78,4.78,0,0,0-1.87-1.36V276.7a1.2,1.2,0,0,0-1.2-1.2h-1.52a1.2,1.2,0,0,0-1.2,1.2v9.52a4.79,4.79,0,0,0-1.59,1.28,1.19,1.19,0,0,0-.27-0.15L344.92,284a1.2,1.2,0,0,0-1.54.71l-0.53,1.42a1.2,1.2,0,0,0,.71,1.54l9.15,3.39a1.18,1.18,0,0,0,.62.05,4.73,4.73,0,0,0,.48,1.58,1.18,1.18,0,0,0-.28.24l-6.13,7.6a1.2,1.2,0,0,0,.18,1.68l1.18,1a1.2,1.2,0,0,0,1.68-.18l6.13-7.6a1.19,1.19,0,0,0,.16-0.27,4.68,4.68,0,0,0,2.58,0,1.18,1.18,0,0,0,.15.25l6.13,7.6a1.2,1.2,0,0,0,1.68.18l1.18-1a1.2,1.2,0,0,0,.18-1.68l-6.13-7.6a1.19,1.19,0,0,0-.21-0.2,4.74,4.74,0,0,0,.5-1.6,1.19,1.19,0,0,0,.43-0.07l9.15-3.39A1.2,1.2,0,0,0,373.08,286.08Zm-17.36,4.41a2.34,2.34,0,1,1,2.34,2.34A2.34,2.34,0,0,1,355.72,290.49Z" transform="translate(-327.34 -262.39)"/><path class="cls-4" d="M368,286.75l-2.65,1.71q0.05,0.18.09,0.37a7.58,7.58,0,0,1-.46,4.71l2.44,1.94a10.62,10.62,0,0,0,1-7.32A10.75,10.75,0,0,0,368,286.75Zm-17.47,5.1-3.13-.43a10.75,10.75,0,0,0,.21,1.4,10.62,10.62,0,0,0,4,6.17l1.39-2.8a7.58,7.58,0,0,1-2.37-4C350.53,292,350.51,291.94,350.49,291.84Zm9.15,6.07a7.58,7.58,0,0,1-3.23,0l-1.38,2.8a10.67,10.67,0,0,0,9.94-2.19l-2.45-1.95A7.58,7.58,0,0,1,359.64,297.92Zm6.3-14.52a10.67,10.67,0,0,0-8.51-3.55l0.68,3a7.62,7.62,0,0,1,5.23,2.21Zm-12.32-2.64a10.68,10.68,0,0,0-5.89,6.77l3.07,0.42a7.63,7.63,0,0,1,3.5-4.12Z" transform="translate(-327.34 -262.39)"/><path class="cls-2" d="M402.9,274.07v8.39h3.69v8.68H402.9a5.8,5.8,0,0,0,.82,3.6,3.78,3.78,0,0,0,3,1v8.63l-0.94,0a11.16,11.16,0,0,1-5.26-1.3,10.65,10.65,0,0,1-4-3.51,13.34,13.34,0,0,1-1.89-7.51v-18h8.21Z" transform="translate(-327.34 -262.39)"/><path class="cls-2" d="M447.67,282.18v8.65a3.36,3.36,0,0,0-2.38.65,4.26,4.26,0,0,0-.82,2.56q-0.57,6.35-4.92,9a13,13,0,0,1-6.55,1.36h-1.14v-8.7h0.37a4,4,0,0,0,2.82-.82,4.36,4.36,0,0,0,1-2.89,20.4,20.4,0,0,1,.63-4.72,6.85,6.85,0,0,1,1.83-2.7,9.2,9.2,0,0,1,6.7-2.35h2.48Z" transform="translate(-327.34 -262.39)"/><path class="cls-2" d="M476.57,274.4v9.16a7.07,7.07,0,0,1,4.17-1.52,6.13,6.13,0,0,1,5,2.28,9.5,9.5,0,0,1,1.86,6.17v13.88H479.4V292.81a4,4,0,0,0-.3-1.89,1.25,1.25,0,0,0-1.15-.48q-1.38,0-1.38,2v11.9h-8.21v-30h8.21Z" transform="translate(-327.34 -262.39)"/><rect class="cls-2" x="105.72" y="48" width="11.7" height="6"/><rect class="cls-2" x="105.82" width="11.7" height="6"/><path class="cls-5" d="M378.09,286.28a0.6,0.6,0,0,0,.67-0.33v-2.33a0.6,0.6,0,0,0-.67-0.33h-2v-1.1h6v1.1h-2a0.6,0.6,0,0,0-.67.33v2.33a0.65,0.65,0,0,0,.67.33h2v1h-6s0-1,0-1h2Z" transform="translate(-327.34 -262.39)"/><path class="cls-5" d="M378.09,295.35a0.6,0.6,0,0,0,.67-0.33v-2.33a0.6,0.6,0,0,0-.67-0.33h-2v-1.1h6v1.1h-2a0.6,0.6,0,0,0-.67.33V295a0.65,0.65,0,0,0,.67.33h2v1h-6s0-1,0-1h2Z" transform="translate(-327.34 -262.39)"/></svg>